<?xml version="1.0" standalone="no"?>
<!DOCTYPE svg PUBLIC "-//W3C//DTD SVG 1.1//EN"
  "http://www.w3.org/Graphics/SVG/1.1/DTD/svg11.dtd">
<svg width="20.199999809265137mm" height="119.89999771118161mm" viewBox="-26.399999618530273 -69.69999694824217 20.199999809265137 119.89999771118161" xmlns="http://www.w3.org/2000/svg" version="1.1">
	<title>svgOutput</title>
	<desc>made with tinkercad</desc>
<path d="M -25.399999618530273 -67.4980010986328 L -11.498000144958496 -67.4980010986328 L -11.39799976348877 -67.4980010986328 L -11.39799976348877 -68.69999694824217 L -7.199999809265137 -68.69999694824217 L -7.199999809265137 49.20000076293944 L -11.39799976348877 49.20000076293944 L -11.39799976348877 47.99700164794921 L -11.498000144958496 47.99700164794921 L -25.399999618530273 47.99700164794921 L -25.399999618530273 37.35200119018554 L -11.498000144958496 37.35200119018554 L -11.498000144958496 36.44800186157226 L -25.399999618530273 36.44800186157226 L -25.399999618530273 25.702999114990227 L -11.498000144958496 25.702999114990227 L -11.498000144958496 24.79700088500976 L -25.399999618530273 24.79700088500976 L -25.399999618530273 14.052000045776364 L -11.498000144958496 14.052000045776364 L -11.498000144958496 13.147000312805172 L -25.399999618530273 13.147000312805172 L -25.399999618530273 2.401999950408935 L -11.498000144958496 2.401999950408935 L -11.498000144958496 1.496999979019165 L -25.399999618530273 1.496999979019165 L -25.399999618530273 -9.248000144958494 L -11.498000144958496 -9.248000144958494 L -11.498000144958496 -10.152999877929686 L -25.399999618530273 -10.152999877929686 L -25.399999618530273 -20.898000717163082 L -11.498000144958496 -20.898000717163082 L -11.498000144958496 -21.802999496459957 L -25.399999618530273 -21.802999496459957 L -25.399999618530273 -32.54800033569335 L -11.498000144958496 -32.54800033569335 L -11.498000144958496 -33.45299911499023 L -25.399999618530273 -33.45299911499023 L -25.399999618530273 -44.19800186157226 L -11.498000144958496 -44.19800186157226 L -11.498000144958496 -45.10300064086913 L -25.399999618530273 -45.10300064086913 L -25.399999618530273 -55.84799957275389 L -11.498000144958496 -55.84799957275389 L -11.498000144958496 -56.75299835205077 L -25.399999618530273 -56.75299835205077 L -25.399999618530273 -67.4980010986328 z" fill="none" stroke="rgb(255,0,0)" stroke-width="0.001mm" />
</svg>