<?xml version="1.0" standalone="no"?>
<!DOCTYPE svg PUBLIC "-//W3C//DTD SVG 1.1//EN"
  "http://www.w3.org/Graphics/SVG/1.1/DTD/svg11.dtd">
<svg width="20.199999809265137mm" height="119.89999771118161mm" viewBox="-26.399999618530273 -69.69999694824217 20.199999809265137 119.89999771118161" xmlns="http://www.w3.org/2000/svg" version="1.1">
	<title>svgOutput</title>
	<desc>made with tinkercad</desc>
<path d="M -25.399999618530273 -67.4980010986328 L -11.498000144958496 -67.4980010986328 L -11.39799976348877 -67.4980010986328 L -11.39799976348877 -68.69999694824217 L -7.199999809265137 -68.69999694824217 L -7.199999809265137 49.20000076293944 L -11.39799976348877 49.20000076293944 L -11.39799976348877 47.99700164794921 L -11.498000144958496 47.99700164794921 L -25.399999618530273 47.99700164794921 L -25.399999618530273 37.85300064086913 L -11.498000144958496 37.85300064086913 L -11.39799976348877 37.85300064086913 L -11.39799976348877 35.94800186157226 L -11.498000144958496 35.94800186157226 L -25.399999618530273 35.94800186157226 L -25.399999618530273 26.202999114990227 L -11.498000144958496 26.202999114990227 L -11.39799976348877 26.202999114990227 L -11.39799976348877 24.298000335693352 L -11.498000144958496 24.298000335693352 L -25.399999618530273 24.298000335693352 L -25.399999618530273 14.553000450134274 L -11.498000144958496 14.553000450134274 L -11.39799976348877 14.553000450134274 L -11.39799976348877 12.647999763488766 L -11.498000144958496 12.647999763488766 L -25.399999618530273 12.647999763488766 L -25.399999618530273 2.903000116348266 L -11.498000144958496 2.903000116348266 L -11.39799976348877 2.903000116348266 L -11.39799976348877 0.9980000257492064 L -11.498000144958496 0.9980000257492064 L -25.399999618530273 0.9980000257492064 L -25.399999618530273 -8.748000144958494 L -11.498000144958496 -8.748000144958494 L -11.39799976348877 -8.748000144958494 L -11.39799976348877 -10.652999877929686 L -11.498000144958496 -10.652999877929686 L -25.399999618530273 -10.652999877929686 L -25.399999618530273 -20.398000717163082 L -11.498000144958496 -20.398000717163082 L -11.39799976348877 -20.398000717163082 L -11.39799976348877 -22.302999496459957 L -11.498000144958496 -22.302999496459957 L -25.399999618530273 -22.302999496459957 L -25.399999618530273 -32.04800033569335 L -11.498000144958496 -32.04800033569335 L -11.39799976348877 -32.04800033569335 L -11.39799976348877 -33.95299911499023 L -11.498000144958496 -33.95299911499023 L -25.399999618530273 -33.95299911499023 L -25.399999618530273 -43.69800186157226 L -11.498000144958496 -43.69800186157226 L -11.39799976348877 -43.69800186157226 L -11.39799976348877 -45.60300064086913 L -11.498000144958496 -45.60300064086913 L -25.399999618530273 -45.60300064086913 L -25.399999618530273 -55.34799957275389 L -11.498000144958496 -55.34799957275389 L -11.39799976348877 -55.34799957275389 L -11.39799976348877 -57.25299835205077 L -11.498000144958496 -57.25299835205077 L -25.399999618530273 -57.25299835205077 L -25.399999618530273 -67.4980010986328 z" fill="none" stroke="rgb(255,0,0)" stroke-width="0.001mm" />
</svg>